<?xml version="1.0" encoding="utf-8"?>
<!-- Generator: Adobe Illustrator 16.0.0, SVG Export Plug-In . SVG Version: 6.00 Build 0)  -->
<!DOCTYPE svg PUBLIC "-//W3C//DTD SVG 1.1//EN" "http://www.w3.org/Graphics/SVG/1.1/DTD/svg11.dtd">
<svg version="1.1" id="Layer_1" xmlns="http://www.w3.org/2000/svg" xmlns:xlink="http://www.w3.org/1999/xlink" x="0px" y="0px"
	 width="1400.264px" height="1400.265px" viewBox="0 0 1400.264 1400.265" enable-background="new 0 0 1400.264 1400.265"
	 xml:space="preserve">
<g>
	<g>
		<path fill="none" d="M700.027,1400.132c-231.667,0-463.333-0.018-695,0.133c-4.514,0.004-4.985-1.283-4.984-5.236
			C0.137,931.695,0.141,468.36,0,5.028c-0.001-4.513,1.282-4.986,5.236-4.985c463.333,0.094,926.667,0.098,1390-0.043
			c4.513-0.001,4.984,1.281,4.983,5.236c-0.095,463.333-0.098,926.668,0.043,1390c0.001,4.514-1.282,4.986-5.234,4.986
			C1163.36,1400.121,931.694,1400.132,700.027,1400.132z M1074.54,292.571c-0.098,0-0.196,0-0.294,0
			c0,3.833,0.005,7.665-0.001,11.497c-0.04,24.325,0.847,48.696-0.379,72.96c-1.282,25.41-3.605,50.802-6.479,76.121
			c-3.433,30.243-9.598,59.803-21.404,87.975c-2.569,6.13-5.684,12.056-8.89,17.886c-1.609,2.934-4.138,5.819-7.938,4.842
			c-3.937-1.012-6.458-4.052-7.168-8.181c-0.514-2.979-0.592-6.05,0.835-8.82c4.517-8.772,3.29-16.979-2.004-24.981
			c-4.972-7.515-9.059-15.479-12.358-23.896c-3.498-8.917-8.732-16.827-15.552-23.621c-12.16-12.118-27.347-17.355-43.986-19.137
			c-12.301-1.313-13.251-2.793-7.956-13.686c2.856-5.875,3.813-12.035,3.096-18.471c-0.989-8.864-6.369-14.896-14.187-15.696
			c-17.155-1.758-34.365-2.265-51.025,2.86c-18.192,5.597-36.959,10.427-49.868,26.286c-2.128,2.613-4.823,2.187-6.609-0.672
			c-1.669-2.669-3.177-5.479-4.416-8.37c-11.245-26.247-29.825-45.158-56.521-55.462c-15.146-5.847-30.888-9.793-45.675-17.069
			c-13.46-6.623-27.364-2.173-40.004,5.152c-5.444,3.157-10.469,7.131-17.028,7.996c-25.398,3.348-44.989,16.172-59.98,36.657
			c-6.139,8.387-10.675,17.632-15.444,26.78c-3.647,7-4.717,7.172-10.537,2.108c-4.158-3.616-8.479-6.997-13.336-9.634
			c-15.214-8.259-31.354-13.885-48.479-16.402c-13.409-1.972-26.896-2.419-40.243,0.549c-8.783,1.952-11.882,6.226-11.662,15.283
			c0.191,7.905,1.444,15.538,5.214,22.658c2.39,4.512,1.767,5.547-3.458,6.746c-5.188,1.19-10.402,2.271-15.601,3.431
			c-20.507,4.573-36.913,14.655-46.749,34.03c-6.022,11.863-11.694,23.908-18.442,35.412c-3.34,5.694-3.578,11.962-1.115,18.322
			c1.128,2.911,1.793,6.085,2.146,9.196c0.552,4.896-2.34,8.717-7.026,10.169c-4.7,1.457-6.952-1.806-8.601-4.977
			c-2.604-5.011-5.882-9.63-7.921-14.991c-9.151-24.06-15.354-48.869-19.479-74.237c-5.868-36.065-8.548-72.414-8.796-108.913
			c-0.266-38.992-0.293-77.993,0.243-116.98c0.299-21.693-0.698-43.245-2.982-64.787c-2.122-20.031-4.334-40.056-5.52-60.177
			c-0.957-16.236-5.291-31.533-13.98-45.347c-5.953-9.464-12.522-18.587-22.579-24.222c-8.608-4.824-14.958-2.482-18.112,6.685
			c-7.312,21.249-11.569,43.011-10.973,65.635c0.315,11.984,0.442,24.011-0.172,35.976c-1.933,37.7-9.846,74.518-17.254,111.383
			c-9.638,47.967-22.169,95.309-31.316,143.385c-5.047,26.528-7.799,53.336-8.968,80.302c-0.695,16.013,0.978,31.93,2.601,47.82
			c2.627,25.726,6.426,51.233,16.341,75.381c7.602,18.513,17.542,35.899,26.167,53.924c6.051,12.643,14.421,23.635,24.968,32.772
			c9.7,8.404,19.193,16.99,28.235,26.1c4.605,4.641,9.95,8.516,16.155,10.635c4.902,1.674,8.132,4.922,11.145,8.785
			c2.182,2.795,1.221,3.244-1.822,3.896c-5.16,1.105-10.754-0.295-15.557,2.613c-9.192,5.564-18.97,8.553-29.88,8.146
			c-10.927-0.406-16.183,5.727-15,16.721c0.938,8.715,3.467,16.992,7.82,24.578c23.227,40.484,56.882,67.27,102.902,77.381
			c19.521,4.291,39.13,6.078,58.746-0.08c8.724-2.74,17.686-4.717,26.442-7.355c3.673-1.105,4.883,0.078,5.132,3.535
			c0.539,7.498,1.562,15.318-0.235,22.414c-4.207,16.613-3.062,32.684,0.162,49.281c3.74,19.248,3.51,39.104,7.381,58.42
			c3.188,15.91,9.147,30.236,21.806,41.084c11.896,10.201,19.353,23.148,23.238,38.209c3.365,13.043,6.057,26.25,9.976,39.158
			c8.751,28.82,21.54,55.283,44.69,75.477c11.755,10.25,19.116,22.818,22.729,37.85c4.354,18.137,8.816,36.088,20.394,51.568
			c11.426,15.281,24.52,27.188,44.42,29.156c7.001,0.693,13.002,3.727,18.701,7.678c15.482,10.736,31.089,14.203,47.998,2.283
			c10.62-7.484,22.992-11.188,36.039-12.186c1.684-0.129,3.277-0.363,4.747-1.309c7.446-4.781,14.554-9.963,20.506-16.602
			c13.862-15.463,21.215-34.033,25.704-53.936c3.714-16.459,8.558-32.219,22.5-43.408c16.349-13.119,27.701-29.998,36.062-49.021
			c7.942-18.064,12.445-37.211,17.665-56.146c5.412-19.631,13.303-37.938,28.408-52.49c6.921-6.668,11.247-15.271,13.947-24.516
			c2.892-9.9,5.266-19.961,8.349-29.801c1.895-6.041,2.782-12.088,1.688-18.211c-1.858-10.381-0.421-20.064,3.992-29.637
			c2.646-5.74,4.669-12.205,2.887-18.453c-2.08-7.285-2.354-14.688-3.272-22.057c-1.01-8.1-1.946-16.203-1.311-24.406
			c0.245-3.15,1.29-4.201,4.712-3.85c5.907,0.609,11.447,2.4,16.83,4.543c20.095,7.994,40.868,7.873,61.534,4.238
			c39.175-6.889,71.146-26.391,95.569-57.854c9.739-12.547,17.859-26.168,22.391-41.51c2.836-9.605-2.934-17.963-12.809-20.033
			c-4.278-0.898-8.618-0.701-12.936-0.875c-4.813-0.193-9.092-1.363-12.763-4.785c-3.678-3.426-8.268-4.867-13.313-4.748
			c-3.347,0.078-6.647-0.264-9.906-1.051c-1.156-0.279-2.911-0.838-1.759-2.08c3.322-3.578,4.943-9.189,10.416-10.277
			c8.079-1.604,13.679-6.566,18.598-12.617c3.704-4.557,7.924-8.457,12.771-11.826c13.159-9.146,23.876-20.708,32.448-34.212
			c10.188-16.051,18.282-33.262,26.967-50.117c17.621-34.206,22.502-71.535,24.782-109.248c1.085-17.935,0.873-35.95-0.854-53.916
			c-2.245-23.377-5.228-46.645-9.977-69.645c-4.745-22.982-9.837-45.892-14.781-68.833c-6.694-31.063-13.14-62.185-20.187-93.168
			c-4.326-19.027-8.018-38.064-9.25-57.594c-1.65-26.091-0.992-52.286-3.688-78.318c-1.441-13.926-3.507-27.77-8.099-41.06
			c-4.355-12.607-12.309-14.998-22.885-7.21c-17.433,12.835-26.648,30.252-30.498,51.42c-6.545,36.019-8.92,72.372-9.809,108.833
			C1074.012,238.569,1074.54,265.576,1074.54,292.571z"/>
		<linearGradient id="SVGID_1_" gradientUnits="userSpaceOnUse" x1="260.2378" y1="58.7725" x2="1142.8071" y2="941.3419">
			<stop  offset="0.3684" style="stop-color:#EF473A"/>
			<stop  offset="1" style="stop-color:#CE2F3E"/>
		</linearGradient>
		<path fill="url(#SVGID_1_)" d="M1074.54,292.571c0-26.995-0.528-54.002,0.129-80.98c0.89-36.462,3.265-72.814,9.811-108.833
			c3.848-21.167,13.063-38.585,30.498-51.42c10.574-7.787,18.525-5.397,22.883,7.21c4.592,13.29,6.656,27.133,8.099,41.06
			c2.694,26.032,2.036,52.227,3.688,78.318c1.232,19.53,4.924,38.567,9.251,57.594c7.046,30.984,13.49,62.104,20.186,93.168
			c4.944,22.941,10.036,45.851,14.781,68.833c4.749,23,7.73,46.267,9.977,69.644c1.729,17.966,1.938,35.983,0.854,53.916
			c-2.28,37.713-7.161,75.042-24.782,109.248c-8.685,16.855-16.776,34.067-26.967,50.118c-8.572,13.505-19.289,25.066-32.448,34.212
			c-4.848,3.369-9.063,7.27-12.771,11.826c-4.919,6.051-10.52,11.014-18.599,12.615c-5.473,1.088-7.094,6.699-10.416,10.277
			c-1.151,1.242,0.603,1.801,1.761,2.08c3.257,0.787,6.56,1.129,9.904,1.051c5.049-0.119,9.639,1.322,13.313,4.748
			c3.671,3.422,7.949,4.592,12.763,4.785c4.316,0.174,8.655-0.023,12.938,0.875c9.873,2.072,15.643,10.428,12.807,20.035
			c-4.529,15.34-12.649,28.961-22.391,41.508c-24.424,31.463-56.396,50.965-95.569,57.855c-20.666,3.633-41.439,3.754-61.534-4.24
			c-5.383-2.143-10.923-3.934-16.83-4.543c-3.422-0.352-4.467,0.699-4.712,3.85c-0.638,8.203,0.301,16.309,1.312,24.406
			c0.919,7.369,1.19,14.771,3.271,22.057c1.782,6.248-0.239,12.713-2.887,18.453c-4.413,9.57-5.853,19.256-3.992,29.637
			c1.097,6.123,0.207,12.17-1.687,18.211c-3.083,9.842-5.456,19.896-8.35,29.803c-2.7,9.242-7.025,17.846-13.947,24.514
			c-15.105,14.553-22.995,32.861-28.407,52.492c-5.221,18.934-9.724,38.078-17.664,56.145
			c-8.362,19.025-19.717,35.902-36.063,49.023c-13.941,11.188-18.786,26.947-22.5,43.406c-4.489,19.898-11.842,38.475-25.704,53.936
			c-5.952,6.639-13.06,11.818-20.506,16.604c-1.47,0.941-3.062,1.178-4.747,1.307c-13.047,0.998-25.419,4.699-36.039,12.186
			c-16.909,11.922-32.516,8.453-47.998-2.283c-5.697-3.949-11.699-6.982-18.7-7.678c-19.901-1.971-32.994-13.875-44.42-29.154
			c-11.574-15.482-16.036-33.436-20.395-51.57c-3.61-15.027-10.973-27.6-22.727-37.85c-23.152-20.189-35.941-46.652-44.692-75.477
			c-3.919-12.908-6.608-26.115-9.974-39.158c-3.89-15.061-11.344-28.008-23.24-38.209c-12.656-10.848-18.615-25.174-21.805-41.084
			c-3.87-19.314-3.642-39.172-7.382-58.42c-3.227-16.602-4.368-32.668-0.161-49.281c1.799-7.096,0.773-14.916,0.234-22.414
			c-0.249-3.457-1.459-4.643-5.132-3.533c-8.759,2.637-17.72,4.611-26.442,7.354c-19.615,6.158-39.227,4.371-58.746,0.08
			c-46.02-10.111-79.674-36.896-102.901-77.381c-4.353-7.586-6.882-15.863-7.82-24.578c-1.183-10.994,4.072-17.127,15-16.721
			c10.91,0.404,20.688-2.582,29.88-8.146c4.804-2.908,10.396-1.508,15.559-2.613c3.043-0.652,4.003-1.104,1.82-3.896
			c-3.013-3.863-6.238-7.111-11.145-8.785c-6.206-2.119-11.549-5.994-16.155-10.635c-9.042-9.109-18.536-17.693-28.235-26.1
			c-10.546-9.138-18.917-20.13-24.968-32.772c-8.625-18.021-18.566-35.411-26.167-53.924c-9.915-24.146-13.713-49.655-16.341-75.381
			c-1.623-15.893-3.296-31.81-2.601-47.82c1.169-26.966,3.921-53.772,8.968-80.302c9.147-48.076,21.678-95.418,31.316-143.385
			c7.408-36.865,15.321-73.683,17.254-111.383c0.614-11.965,0.487-23.992,0.172-35.976c-0.596-22.624,3.661-44.386,10.973-65.635
			c3.155-9.167,9.504-11.509,18.112-6.685c10.055,5.635,16.625,14.758,22.58,24.222c8.688,13.814,13.021,29.111,13.979,45.347
			c1.188,20.121,3.396,40.146,5.521,60.177c2.282,21.542,3.279,43.093,2.98,64.787c-0.536,38.988-0.509,77.988-0.243,116.98
			c0.248,36.499,2.93,72.846,8.796,108.913c4.128,25.368,10.328,50.18,19.479,74.237c2.039,5.361,5.315,9.98,7.921,14.991
			c1.648,3.171,3.9,6.434,8.602,4.977c4.688-1.451,7.577-5.271,7.025-10.169c-0.351-3.111-1.017-6.284-2.144-9.196
			c-2.464-6.36-2.227-12.626,1.113-18.322c6.748-11.504,12.421-23.549,18.442-35.412c9.836-19.375,26.242-29.457,46.749-34.03
			c5.197-1.159,10.412-2.236,15.601-3.431c5.226-1.199,5.849-2.234,3.458-6.746c-3.77-7.12-5.021-14.753-5.214-22.658
			c-0.22-9.058,2.879-13.331,11.662-15.283c13.351-2.968,26.834-2.521,40.243-0.549c17.123,2.518,33.265,8.144,48.479,16.402
			c4.856,2.637,9.178,6.018,13.336,9.634c5.819,5.063,6.889,4.893,10.536-2.107c4.771-9.147,9.308-18.395,15.444-26.779
			c14.991-20.485,34.582-33.309,59.981-36.657c6.561-0.865,11.584-4.839,17.027-7.996c12.641-7.326,26.544-11.775,40.005-5.152
			c14.786,7.276,30.525,11.222,45.676,17.069c26.693,10.304,45.273,29.215,56.521,55.462c1.239,2.895,2.747,5.701,4.416,8.37
			c1.786,2.856,4.482,3.285,6.609,0.672c12.911-15.859,31.676-20.688,49.87-26.286c16.659-5.125,33.869-4.618,51.023-2.86
			c7.815,0.801,13.195,6.832,14.188,15.695c0.719,6.436-0.238,12.596-3.096,18.471c-5.296,10.893-4.346,12.37,7.955,13.686
			c16.642,1.779,31.826,7.02,43.986,19.138c6.818,6.794,12.054,14.703,15.552,23.62c3.304,8.42,7.391,16.384,12.358,23.896
			c5.294,8.004,6.521,16.209,2.004,24.982c-1.426,2.771-1.348,5.844-0.835,8.819c0.71,4.129,3.232,7.169,7.168,8.181
			c3.803,0.979,6.329-1.908,7.938-4.842c3.207-5.83,6.318-11.756,8.89-17.886c11.809-28.172,17.974-57.729,21.405-87.975
			c2.873-25.317,5.195-50.709,6.479-76.12c1.227-24.265,0.339-48.636,0.379-72.96c0.006-3.832,0.001-7.664,0.001-11.497
			C1074.344,292.57,1074.442,292.57,1074.54,292.571z"/>
	</g>
</g>
</svg>
